<?xml version="1.0" standalone="no"?>
<!DOCTYPE svg PUBLIC "-//W3C//DTD SVG 20010904//EN"
 "http://www.w3.org/TR/2001/REC-SVG-20010904/DTD/svg10.dtd">
<svg version="1.0" xmlns="http://www.w3.org/2000/svg"
 width="512.000000pt" height="512.000000pt" viewBox="0 0 512.000000 512.000000"
 preserveAspectRatio="xMidYMid meet">

<g transform="translate(0.000000,512.000000) scale(0.100000,-0.100000)"
fill="#000000" stroke="none">
<path d="M2365 5114 c-16 -2 -73 -9 -125 -15 -418 -47 -869 -231 -1225 -498
-127 -96 -334 -297 -438 -426 -339 -420 -531 -910 -569 -1453 -24 -335 30
-721 147 -1038 55 -150 185 -407 270 -534 418 -626 1043 -1017 1810 -1132 132
-19 550 -17 683 5 640 104 1177 396 1574 857 539 626 743 1445 562 2254 -74
333 -239 684 -456 974 -91 122 -304 341 -427 440 -360 290 -782 474 -1251 547
-100 16 -486 29 -555 19z m115 -731 l0 -568 -97 3 c-143 4 -375 29 -536 57
-144 26 -334 68 -343 77 -16 17 142 332 237 473 107 158 242 301 363 384 98
68 274 139 349 140 l27 1 0 -567z m265 552 c70 -18 206 -81 268 -124 180 -125
351 -331 481 -582 74 -141 130 -268 122 -276 -10 -10 -200 -53 -343 -78 -162
-28 -394 -53 -536 -57 l-97 -3 0 568 0 567 23 0 c12 0 50 -7 82 -15z m-922
-167 c-180 -185 -330 -420 -448 -701 -33 -79 -20 -78 -175 -20 -110 41 -354
155 -363 170 -8 13 165 171 289 264 125 93 234 160 388 236 119 58 360 151
395 152 8 1 -30 -45 -86 -101z m1513 61 c220 -75 466 -204 653 -344 129 -96
303 -254 295 -267 -10 -16 -254 -130 -364 -171 -155 -58 -142 -59 -175 20
-117 281 -263 509 -449 701 -54 56 -94 102 -89 102 6 0 64 -18 129 -41z
m-2357 -863 c103 -47 283 -116 301 -116 14 0 13 -5 -11 -80 -86 -273 -154
-664 -165 -945 -3 -77 -7 -150 -10 -162 l-4 -23 -466 0 -465 0 6 73 c28 335
101 607 234 882 80 166 156 290 251 413 l70 91 81 -45 c44 -25 124 -64 178
-88z m3491 43 c95 -124 171 -247 251 -414 133 -275 206 -547 234 -882 l6 -73
-465 0 -466 0 -4 23 c-3 12 -7 85 -10 162 -11 281 -79 672 -165 945 -24 75
-25 80 -11 80 40 0 388 150 495 213 33 19 61 36 62 36 1 1 34 -40 73 -90z
m-2890 -243 c243 -57 496 -93 715 -102 77 -3 150 -7 163 -10 l22 -4 0 -505 0
-505 -612 0 -613 0 3 102 c8 300 72 693 158 976 20 68 28 82 42 78 9 -3 64
-17 122 -30z m2124 -48 c86 -283 142 -620 160 -970 l6 -108 -615 0 -615 0 0
505 0 505 23 4 c12 3 85 7 162 10 226 9 539 55 750 111 50 13 93 24 97 24 4 1
19 -36 32 -81z m-2610 -1254 c3 -9 6 -52 6 -97 0 -257 79 -730 169 -1017 11
-35 19 -65 18 -65 -1 -1 -49 -18 -107 -39 -115 -42 -286 -119 -394 -178 -38
-21 -70 -38 -72 -38 -9 0 -156 205 -203 283 -198 329 -311 686 -346 1095 l-6
72 464 0 c415 0 466 -2 471 -16z m1386 -487 l0 -504 -152 -6 c-242 -10 -545
-53 -782 -113 -54 -14 -102 -21 -106 -17 -11 12 -77 261 -105 398 -43 211 -70
443 -77 663 l-3 82 612 0 613 0 0 -503z m1383 431 c-14 -352 -71 -707 -159
-997 -23 -76 -27 -82 -47 -77 -230 66 -592 122 -859 133 l-158 6 0 504 0 503
613 0 613 0 -3 -72z m1092 0 c-35 -409 -148 -766 -346 -1095 -47 -78 -194
-283 -203 -283 -2 0 -45 23 -96 51 -103 57 -273 132 -395 174 -44 16 -81 29
-82 30 -1 0 7 30 18 65 86 276 154 665 165 945 3 77 7 150 10 163 l4 22 466 0
465 0 -6 -72z m-2475 -1668 l0 -570 -23 0 c-71 0 -255 73 -353 141 -126 86
-256 226 -369 394 -98 146 -250 453 -233 470 14 15 301 75 473 100 155 22 273
32 398 34 l107 1 0 -570z m588 545 c194 -24 531 -91 549 -108 18 -18 -131
-320 -232 -472 -146 -218 -306 -370 -480 -456 -96 -47 -194 -79 -242 -79 l-23
0 0 572 0 571 153 -6 c83 -4 207 -13 275 -22z m-1709 -192 c24 -68 127 -279
184 -375 81 -138 167 -250 280 -365 56 -57 96 -103 90 -103 -32 0 -266 90
-388 149 -160 78 -266 141 -398 239 -102 76 -297 248 -297 262 0 12 110 73
222 122 98 43 266 107 283 108 6 0 17 -17 24 -37z m2561 -10 c108 -40 325
-142 355 -167 20 -16 18 -18 -55 -87 -261 -247 -551 -423 -884 -538 -65 -23
-123 -41 -129 -41 -5 0 35 46 89 103 113 116 187 212 270 348 57 94 170 320
195 392 16 45 12 45 159 -10z"/>
</g>
</svg>
