<?xml version="1.0" standalone="no"?>
<!DOCTYPE svg PUBLIC "-//W3C//DTD SVG 20010904//EN"
 "http://www.w3.org/TR/2001/REC-SVG-20010904/DTD/svg10.dtd">
<svg version="1.0" xmlns="http://www.w3.org/2000/svg"
 width="510.000000pt" height="510.000000pt" viewBox="0 0 510.000000 510.000000"
 preserveAspectRatio="xMidYMid meet">

<g transform="translate(0.000000,510.000000) scale(0.100000,-0.100000)"
fill="#000000" stroke="none">
<path d="M2526 4190 c-15 -27 -25 -50 -22 -51 3 0 29 0 56 0 28 0 53 0 56 0 7
1 -48 101 -56 101 -4 0 -19 -22 -34 -50z"/>
<path d="M2447 3398 c-3 -18 -9 -75 -13 -126 -4 -51 -9 -94 -13 -96 -3 -2 -39
-7 -78 -11 l-73 -7 0 63 c0 35 -3 95 -7 132 l-6 68 -51 -6 c-89 -11 -126 -25
-136 -48 -5 -12 -21 -101 -35 -197 -14 -96 -35 -235 -46 -307 -26 -170 -24
-187 19 -191 26 -3 32 -8 32 -26 0 -21 6 -24 53 -30 28 -3 69 -9 90 -12 30 -5
37 -4 37 10 0 14 11 21 33 17 4 0 7 3 7 8 0 5 -16 7 -36 6 -27 -3 -34 -1 -26
7 6 6 36 11 66 12 30 0 52 4 50 8 -6 9 16 10 186 13 63 1 107 0 98 -2 -10 -3
-18 -8 -18 -12 0 -5 -30 -8 -67 -8 -123 1 -250 -28 -288 -67 -8 -7 -63 -215
-124 -462 -61 -247 -117 -471 -124 -499 l-13 -50 -101 -25 -101 -25 -99 -130
-98 -130 -182 -30 c-100 -16 -185 -33 -189 -37 -4 -5 604 -7 1352 -7 l1359 1
-100 20 c-55 10 -140 27 -190 36 l-90 17 -97 130 -97 130 -73 17 c-134 33
-133 32 -136 58 -3 24 -19 92 -158 675 -32 132 -59 256 -62 277 -5 42 -2 43
96 53 60 7 69 13 63 48 0 4 13 7 29 7 19 0 33 6 37 16 3 9 -4 89 -16 177 -30
221 -73 522 -75 524 -6 7 -187 29 -191 23 -2 -4 -7 -62 -11 -129 -7 -118 -8
-122 -28 -117 -12 3 -46 6 -77 6 l-57 0 -8 128 -9 127 -101 3 -102 3 -5 -33z
m23 -318 c0 -8 -96 -18 -170 -18 -45 0 -45 0 15 11 69 14 155 17 155 7z m170
-5 c11 -13 10 -14 -4 -9 -9 3 -16 10 -16 15 0 13 6 11 20 -6z m40 0 c11 -13
10 -14 -4 -9 -9 3 -16 10 -16 15 0 13 6 11 20 -6z m50 -6 c0 -4 -7 -6 -15 -3
-8 4 -15 10 -15 15 0 4 7 6 15 3 8 -4 15 -10 15 -15z m33 7 c4 -10 1 -13 -9
-9 -15 6 -19 23 -5 23 5 0 11 -7 14 -14z m47 -1 c7 -8 8 -15 2 -15 -5 0 -15 7
-22 15 -7 8 -8 15 -2 15 5 0 15 -7 22 -15z m-290 -344 c0 -5 -127 -6 -140 0
-3 1 13 5 35 8 44 7 105 2 105 -8z m128 3 c12 -8 22 -20 22 -26 0 -6 -6 -5
-16 3 -13 10 -17 10 -24 0 -5 -9 -10 -10 -14 -2 -4 6 -23 11 -42 11 -21 0 -33
-4 -29 -10 4 -6 -8 -10 -30 -10 -20 0 -34 4 -30 10 3 5 13 6 22 3 9 -4 21 1
27 10 7 8 28 17 47 20 18 2 36 5 39 5 3 1 16 -5 28 -14z m142 -19 c7 -8 9 -15
6 -15 -4 0 -14 7 -22 15 -9 8 -11 15 -6 15 5 0 15 -7 22 -15z m-523 -21 c-7
-7 -87 -10 -87 -3 0 4 5 9 11 11 13 4 82 -3 76 -8z m106 -71 c-7 -2 -21 -2
-30 0 -10 3 -4 5 12 5 17 0 24 -2 18 -5z m-20 -62 c-5 -6 -53 41 -53 52 0 6
13 -3 28 -19 16 -16 27 -31 25 -33z m27 13 c0 -3 -7 -1 -15 6 -8 7 -15 17 -15
22 0 5 7 3 15 -6 8 -8 15 -18 15 -22z m70 -601 c0 -24 -36 -103 -47 -103 -7 0
-13 6 -13 13 0 9 -3 8 -9 -2 -5 -7 -14 -10 -20 -7 -6 4 -11 3 -11 -3 0 -16 22
-25 30 -11 6 9 9 10 15 0 11 -17 -15 -31 -37 -19 -12 7 -18 6 -18 -1 0 -7 -8
-9 -20 -5 -11 4 -20 2 -20 -4 0 -6 4 -11 10 -11 5 0 18 -10 29 -21 14 -15 28
-20 49 -17 30 4 30 4 27 -41 -1 -25 -6 -61 -10 -78 l-7 -33 -120 0 c-86 0
-120 -3 -123 -12 -9 -22 -63 -15 -87 11 l-23 23 25 -7 24 -8 -19 29 c-15 24
-16 27 -2 15 11 -9 17 -10 17 -2 0 6 7 11 15 11 8 0 15 5 15 10 0 6 9 10 20
10 11 0 20 6 21 13 0 10 2 10 6 0 6 -17 53 -16 94 2 29 12 25 22 -6 15 -5 -1
-19 -2 -30 -3 -11 0 -26 -5 -32 -10 -9 -6 -13 -6 -13 1 0 6 9 14 20 17 11 3
20 13 20 22 0 9 15 30 34 48 30 28 47 67 52 115 0 8 2 20 3 27 0 6 20 13 44
15 23 2 54 4 70 6 15 1 27 -1 27 -5z m88 -150 c-15 -18 -31 -16 -51 7 -20 24
-10 26 21 4 24 -16 30 -7 10 15 -11 11 -9 11 9 0 16 -10 19 -16 11 -26z m-78
17 c0 -5 -4 -10 -10 -10 -5 0 -10 5 -10 10 0 6 5 10 10 10 6 0 10 -4 10 -10z
m110 -30 c0 -5 -2 -10 -4 -10 -3 0 -8 5 -11 10 -3 6 -1 10 4 10 6 0 11 -4 11
-10z m285 -10 c18 0 35 4 37 9 2 4 11 0 22 -10 18 -17 16 -18 -33 -14 -56 4
-71 10 -70 28 0 9 2 9 6 0 2 -7 20 -13 38 -13z m110 -10 c3 -5 1 -10 -4 -10
-6 0 -11 5 -11 10 0 6 2 10 4 10 3 0 8 -4 11 -10z m-640 -190 c3 -5 11 -10 16
-10 6 0 8 4 5 8 -2 4 30 8 71 7 75 0 77 -1 84 -27 8 -30 -1 -41 -24 -32 -10 3
-18 -2 -22 -15 -7 -23 -8 -23 -47 -26 -17 -1 -28 3 -28 10 0 17 -29 40 -38 31
-4 -4 1 -12 11 -17 9 -6 17 -15 17 -21 0 -7 -14 1 -31 18 l-31 29 -19 -24
c-11 -13 -30 -23 -44 -23 -14 0 -28 -5 -31 -9 -3 -5 -10 -7 -15 -4 -5 4 -9 2
-9 -4 0 -6 -6 -8 -14 -5 -8 3 -17 -2 -20 -13 -14 -47 -35 -167 -30 -174 3 -5
0 -9 -5 -9 -6 0 -11 -6 -11 -14 0 -11 -36 -14 -197 -15 -109 -1 -195 1 -192 4
3 3 25 7 48 9 31 2 48 11 63 29 20 25 22 25 35 9 13 -16 13 -16 11 3 -1 11 4
30 10 43 7 12 10 27 7 32 -4 6 1 7 11 3 13 -5 16 -3 11 10 -3 9 -3 17 1 17 13
0 44 59 37 70 -3 6 1 10 11 10 11 0 15 6 11 19 -10 38 112 73 259 74 40 0 71
4 68 9 -3 4 -1 8 5 8 5 0 13 -4 16 -10z m-455 -244 c0 -3 -4 -8 -10 -11 -5 -3
-10 -1 -10 4 0 6 5 11 10 11 6 0 10 -2 10 -4z"/>
<path d="M2427 1578 c-6 -4 -15 -4 -19 -2 -4 3 -8 0 -8 -7 0 -6 8 -9 20 -6 17
4 20 2 15 -14 -4 -11 -2 -19 4 -19 6 0 11 6 11 14 0 8 9 18 20 21 11 3 20 10
20 15 0 9 -47 8 -63 -2z"/>
<path d="M1688 2673 c7 -3 16 -2 19 1 4 3 -2 6 -13 5 -11 0 -14 -3 -6 -6z"/>
<path d="M1638 2623 c6 -2 18 -2 25 0 6 3 1 5 -13 5 -14 0 -19 -2 -12 -5z"/>
<path d="M1573 2543 c9 -2 23 -2 30 0 6 3 -1 5 -18 5 -16 0 -22 -2 -12 -5z"/>
<path d="M1543 2473 c9 -2 23 -2 30 0 6 3 -1 5 -18 5 -16 0 -22 -2 -12 -5z"/>
<path d="M3574 2434 c-18 -14 -18 -15 4 -4 12 6 22 13 22 15 0 8 -5 6 -26 -11z"/>
<path d="M1188 1863 c7 -3 16 -2 19 1 4 3 -2 6 -13 5 -11 0 -14 -3 -6 -6z"/>
<path d="M1210 1128 c0 -2 -2 -65 -3 -141 l-2 -137 33 0 c30 0 32 2 22 20 -14
26 -9 92 7 97 13 5 32 -13 90 -80 29 -34 35 -37 87 -37 l55 0 -10 29 c-6 16
-9 49 -7 72 l3 44 75 0 75 0 3 -52 c2 -29 -2 -62 -8 -73 -10 -18 -8 -20 22
-20 l33 0 -3 140 c-3 137 -4 140 -25 140 -21 0 -22 -5 -22 -57 l0 -58 -79 -3
-79 -3 6 61 c5 58 4 60 -19 60 l-24 0 0 -135 c0 -74 -3 -135 -6 -135 -7 0 -34
29 -71 78 l-26 32 23 43 c39 75 3 117 -101 117 -27 0 -49 -1 -49 -2z m98 -24
c17 -12 22 -25 22 -58 0 -49 -17 -69 -52 -64 -20 3 -23 9 -26 57 -5 83 9 98
56 65z"/>
<path d="M1781 1112 c-49 -25 -73 -74 -68 -140 4 -59 30 -95 84 -118 131 -56
262 82 198 207 -34 65 -139 90 -214 51z m139 -19 c34 -31 52 -88 43 -137 -13
-68 -41 -96 -95 -96 -86 0 -144 111 -102 197 33 67 102 83 154 36z"/>
<path d="M2035 991 l0 -141 25 -1 c137 -8 179 4 217 60 27 40 31 107 8 151
-23 45 -68 63 -165 68 l-85 4 0 -141z m165 101 c100 -72 64 -232 -53 -232 -24
0 -48 5 -55 12 -13 13 -17 229 -4 242 11 12 84 -3 112 -22z"/>
<path d="M2328 990 l-3 -140 73 0 c51 0 72 4 72 13 0 8 3 7 10 -3 6 -10 26
-15 59 -15 63 0 91 23 91 74 0 31 -8 45 -46 81 -25 25 -50 53 -55 63 -14 25 6
57 36 57 14 0 30 -9 37 -20 17 -27 28 -25 28 5 0 23 -3 25 -50 25 -37 0 -55
-5 -70 -20 -34 -34 -26 -67 35 -131 58 -60 63 -74 42 -103 -18 -25 -69 -18
-82 12 -10 23 -25 30 -25 11 0 -5 -4 -8 -9 -5 -5 3 -11 -3 -14 -14 -4 -14 -14
-20 -36 -20 -38 0 -53 26 -49 83 3 38 6 42 31 45 18 2 29 -2 33 -12 10 -26 24
-18 24 13 0 29 -1 30 -30 19 -48 -16 -60 -6 -60 52 l0 50 34 0 c23 0 36 -6 41
-17 7 -17 8 -16 15 2 14 34 12 35 -59 35 l-70 0 -3 -140z"/>
<path d="M2735 990 l0 -140 33 0 c30 0 32 2 22 21 -7 13 -10 65 -8 140 l3 119
-25 0 -25 0 0 -140z"/>
<path d="M2857 1113 c-35 -40 -25 -77 33 -134 51 -49 63 -82 38 -107 -22 -22
-66 -14 -81 14 l-14 27 -5 -27 c-11 -58 96 -63 139 -7 27 35 15 70 -42 125
-55 52 -66 81 -43 104 18 18 45 14 68 -10 l20 -22 0 27 c0 26 -3 27 -48 27
-34 0 -54 -5 -65 -17z"/>
<path d="M3018 1011 c2 -75 -1 -127 -8 -140 -10 -21 -9 -21 85 -21 53 0 94 4
91 9 -3 5 1 29 10 55 15 43 18 46 50 46 29 0 36 -5 54 -40 11 -21 20 -46 20
-55 0 -12 12 -15 53 -15 l52 0 -7 97 c-4 54 -5 100 -2 102 2 2 47 -41 100 -97
53 -56 102 -102 110 -102 11 0 14 26 14 140 0 127 -2 140 -18 140 -16 0 -17
-10 -14 -106 3 -63 1 -105 -5 -103 -5 2 -51 49 -102 104 -51 55 -98 100 -104
100 -8 0 -14 -42 -17 -135 -3 -92 -8 -129 -14 -116 -5 10 -30 71 -56 134 -25
64 -51 117 -56 119 -5 2 -27 -45 -48 -104 -58 -162 -60 -165 -104 -161 l-37 3
-3 133 c-3 129 -3 132 -25 132 -22 0 -22 -2 -19 -119z m248 4 c19 -45 19 -45
-16 -45 -16 0 -30 3 -30 7 0 10 24 73 28 73 1 0 10 -16 18 -35z"/>
<path d="M3695 992 l0 -140 57 -6 c128 -15 208 40 208 143 0 94 -50 133 -179
139 l-86 4 0 -140z m171 93 c41 -31 61 -98 44 -149 -18 -54 -54 -78 -114 -74
l-51 3 -3 114 c-1 63 0 121 3 129 7 20 82 6 121 -23z"/>
<path d="M836 1017 c-14 -24 -26 -47 -26 -50 0 -4 27 -7 59 -7 l60 0 -26 45
c-13 25 -28 47 -33 50 -5 3 -20 -14 -34 -38z"/>
<path d="M4216 1016 c-14 -25 -26 -47 -26 -50 0 -3 27 -6 60 -6 l60 0 -28 50
c-15 27 -30 50 -34 50 -3 0 -18 -20 -32 -44z"/>
<path d="M572 878 c-7 -7 -12 -18 -12 -25 0 -11 53 -13 278 -11 269 3 277 4
277 23 0 19 -8 20 -265 23 -198 2 -269 -1 -278 -10z"/>
<path d="M3998 884 c-3 -3 -4 -14 -1 -25 5 -18 17 -19 284 -19 154 0 279 3
279 8 0 4 -7 15 -14 25 -12 15 -38 17 -278 17 -146 0 -267 -3 -270 -6z"/>
</g>
</svg>
